<svg width="18" height="18" viewBox="0 0 18 18" fill="none" xmlns="http://www.w3.org/2000/svg">
<g id="arrow 1" clip-path="url(#clip0_205_66)">
<path id="Vector" d="M9 0C13.9711 0 18 4.02891 18 9C18 13.9711 13.9711 18 9 18C4.02891 18 0 13.9711 0 9C0 4.02891 4.02891 0 9 0ZM13.2539 8.47266C13.5844 8.14219 13.5844 7.60781 13.2539 7.28086C12.9234 6.95391 12.3891 6.95039 12.0621 7.28086L9.00352 10.3395L5.94492 7.28086C5.61445 6.95039 5.08008 6.95039 4.75313 7.28086C4.42617 7.61133 4.42266 8.1457 4.75313 8.47266L8.40234 12.1289C8.73281 12.4594 9.26719 12.4594 9.59414 12.1289L13.2539 8.47266Z" fill="#3FB3AB"/>
</g>
<defs>
<clipPath id="clip0_205_66">
<rect width="18" height="18" fill="white" transform="matrix(-1 0 0 1 18 0)"/>
</clipPath>
</defs>
</svg>
